<?xml version="1.0" encoding="UTF-8"?>
<svg id="Layer_1" xmlns="http://www.w3.org/2000/svg" version="1.1" viewBox="0 0 1200 600">
  <!-- Generator: Adobe Illustrator 29.7.1, SVG Export Plug-In . SVG Version: 2.1.1 Build 8)  -->
  <defs>
    <style>
      .st0 {
        fill: #fcaf1a;
      }

      .st1 {
        fill: #7055a4;
      }
    </style>
  </defs>
  <g>
    <path class="st1" d="M202.43,130.26c5.12,0,9.26,4.19,9.26,9.3s-4.14,9.26-9.26,9.26-9.26-4.14-9.26-9.26,4.14-9.3,9.26-9.3"/>
    <path class="st1" d="M205.01,150.9c5.73,0,10.38,4.65,10.38,10.39s-4.65,10.4-10.38,10.4-10.39-4.65-10.39-10.4,4.65-10.39,10.39-10.39"/>
    <path class="st1" d="M215.85,171.98c6.87,0,12.46,5.59,12.46,12.46s-5.59,12.51-12.46,12.51-12.46-5.58-12.46-12.51,5.59-12.46,12.46-12.46"/>
    <path class="st1" d="M235.19,193.06c7.65,0,13.91,6.25,13.91,13.91s-6.25,13.9-13.91,13.9-13.91-6.2-13.91-13.9,6.2-13.91,13.91-13.91"/>
    <path class="st1" d="M261.39,213.22c8.73,0,15.82,7.08,15.82,15.82s-7.08,15.82-15.82,15.82-15.82-7.08-15.82-15.82,7.08-15.82,15.82-15.82"/>
    <path class="st1" d="M295.61,322.37c-2.64,4.34-1.29,10.07,3.1,12.71,4.39,2.69,10.07,1.29,12.72-3.1,2.68-4.34,1.29-10.07-3.05-12.71-4.39-2.68-10.07-1.29-12.77,3.1"/>
    <path class="st1" d="M298.88,298.6c-3,4.91-1.45,11.27,3.46,14.26,4.92,3,11.32,1.45,14.26-3.46,3-4.92,1.45-11.27-3.46-14.26-4.91-3-11.26-1.45-14.26,3.47h0Z"/>
    <path class="st1" d="M293.02,271.33c-3.57,5.89-1.7,13.54,4.14,17.11,5.9,3.62,13.54,1.75,17.16-4.14,3.57-5.9,1.71-13.54-4.18-17.16-5.9-3.57-13.54-1.71-17.11,4.19h-.01Z"/>
    <path class="st1" d="M274.8,246.24c-3.98,6.56-1.92,15.09,4.65,19.07,6.51,3.98,15.09,1.92,19.07-4.65,3.98-6.51,1.92-15.09-4.65-19.07-6.51-3.98-15.09-1.92-19.07,4.65"/>
    <path class="st0" d="M105.3,263.27c5.12,0,9.26,4.14,9.26,9.26s-4.14,9.25-9.26,9.25-9.3-4.14-9.3-9.25,4.18-9.26,9.3-9.26"/>
    <path class="st0" d="M107.84,283.81c5.73,0,10.39,4.65,10.39,10.38s-4.65,10.39-10.39,10.39-10.39-4.65-10.39-10.39,4.65-10.38,10.39-10.38"/>
    <path class="st0" d="M118.7,304.92c6.87,0,12.46,5.59,12.46,12.51s-5.59,12.46-12.46,12.46-12.46-5.58-12.46-12.46,5.59-12.51,12.46-12.51"/>
    <path class="st0" d="M138.02,326c7.7,0,13.91,6.25,13.91,13.91s-6.21,13.9-13.91,13.9-13.91-6.2-13.91-13.9,6.25-13.91,13.91-13.91"/>
    <path class="st0" d="M164.22,346.16c8.73,0,15.82,7.08,15.82,15.82s-7.08,15.82-15.82,15.82-15.82-7.08-15.82-15.82,7.08-15.82,15.82-15.82"/>
    <path class="st0" d="M198.49,455.31c-2.69,4.34-1.29,10.07,3.05,12.71,4.39,2.68,10.07,1.29,12.76-3.1,2.64-4.34,1.3-10.07-3.1-12.72-4.39-2.68-10.09-1.28-12.71,3.11"/>
    <path class="st0" d="M201.74,431.53c-3,4.91-1.45,11.27,3.47,14.26,4.86,3,11.27,1.45,14.26-3.47,2.95-4.91,1.4-11.27-3.46-14.26-4.91-3-11.32-1.45-14.26,3.46h-.01Z"/>
    <path class="st0" d="M195.87,404.25c-3.56,5.9-1.7,13.54,4.19,17.11,5.9,3.62,13.54,1.75,17.11-4.14,3.57-5.9,1.71-13.54-4.14-17.11-5.89-3.62-13.54-1.75-17.16,4.14"/>
    <path class="st0" d="M177.62,379.19c-3.98,6.56-1.92,15.09,4.65,19.07,6.56,4.03,15.09,1.92,19.13-4.66,3.98-6.51,1.92-15.09-4.65-19.07-6.56-3.98-15.09-1.91-19.13,4.65h0Z"/>
    <path class="st1" d="M218.29,231.05c2.22-1.65,5.37-1.19,7.03,1.03,1.66,2.22,1.19,5.37-1.03,7.03l-76.7,56.65c-2.23,1.65-5.37,1.19-7.03-1.03-1.65-2.28-1.19-5.43,1.03-7.08l76.7-56.6Z"/>
    <path class="st1" d="M236.21,240.93c2.27-1.66,5.43-1.14,7.02,1.09,1.66,2.27,1.14,5.43-1.08,7.08l-88.59,64.3c-2.23,1.59-5.37,1.14-7.03-1.14-1.61-2.27-1.14-5.43,1.14-7.03l88.54-64.3h.01Z"/>
    <path class="st0" d="M255.42,248.26c2.23-1.66,5.37-1.14,7.03,1.09,1.65,2.27,1.14,5.43-1.09,7.03l-99.75,73.29c-2.23,1.61-5.37,1.14-7.03-1.09-1.65-2.27-1.14-5.43,1.09-7.07l99.75-73.24Z"/>
    <path class="st1" d="M253.43,272.55c2.23-1.65,5.37-1.19,7.02,1.09,1.66,2.22,1.19,5.37-1.03,7.03l-76.7,56.65c-2.22,1.65-5.37,1.19-7.03-1.08-1.66-2.23-1.19-5.38,1.03-7.03l76.7-56.65h.01Z"/>
    <path class="st1" d="M271.38,282.44c2.27-1.61,5.43-1.14,7.03,1.14,1.65,2.27,1.14,5.43-1.09,7.03l-88.54,64.3c-2.27,1.66-5.43,1.14-7.08-1.09-1.61-2.27-1.14-5.43,1.14-7.08l88.54-64.3Z"/>
    <path class="st1" d="M575.43,282.88c-1.65,1.07-4.25,1.6-7.81,1.6-3.07,0-5.85-.38-8.34-1.14-2.49-.8-4.7-1.92-6.61-3.34l-3.14,7.54c2.32,1.74,5.03,3.09,8.14,4.07,3.16.94,6.74,1.4,10.75,1.4,4.36,0,7.99-.58,10.88-1.74,2.94-1.2,5.12-2.85,6.54-4.94,1.43-2.09,2.14-4.52,2.14-7.28,0-3.2-.94-5.79-2.8-7.74-1.45-1.59-3.38-2.71-5.78-3.4,1.97-.75,3.59-1.86,4.84-3.35,1.69-2,2.54-4.4,2.54-7.21,0-3.79-1.51-6.88-4.54-9.28-2.98-2.4-7.46-3.6-13.42-3.6-3.65,0-7.07.47-10.28,1.4-3.21.94-5.85,2.25-7.94,3.94l3.14,7.61c1.83-1.42,3.96-2.51,6.41-3.27,2.45-.76,4.97-1.14,7.54-1.14,3.12,0,5.39.53,6.81,1.6,1.46,1.07,2.2,2.47,2.2,4.21,0,1.87-.67,3.27-2.01,4.21-1.33.89-3.36,1.33-6.07,1.33h-10.61v8.01h11.75c2.8,0,4.87.47,6.21,1.4,1.34.93,2,2.36,2,4.27,0,2.14-.84,3.74-2.53,4.81"/>
  </g>
  <polygon class="st1" points="588.74 193.89 588.74 224.47 598.42 224.47 598.42 177.41 590.67 177.41 566.84 207.98 566.84 177.41 557.23 177.41 557.23 224.47 564.84 224.47 588.74 193.89"/>
  <rect class="st1" x="1088.78" y="313.06" width="10.41" height="47.06"/>
  <path class="st1" d="M666.26,257.38c2.05-2.72,5.12-4.07,9.21-4.07s7.1,1.35,9.15,4.07c2.09,2.67,3.14,6.45,3.14,11.35s-1.05,8.66-3.14,11.42c-2.09,2.71-5.14,4.07-9.15,4.07s-7.16-1.36-9.21-4.07c-2-2.76-3.01-6.56-3.01-11.42s1-8.68,3.01-11.35M675.47,293.03c4.76,0,8.88-1,12.35-3.01,3.47-2.05,6.14-4.87,8.01-8.48,1.92-3.65,2.87-7.94,2.87-12.88s-.96-9.08-2.87-12.68c-1.87-3.65-4.54-6.47-8.01-8.48-3.47-2-7.59-3.01-12.35-3.01s-8.88,1-12.35,3.01c-3.47,2-6.14,4.83-8.01,8.48-1.82,3.61-2.74,7.86-2.74,12.75s.94,9.1,2.81,12.75c1.87,3.65,4.52,6.5,7.94,8.54,3.47,2.01,7.59,3.01,12.35,3.01"/>
  <polygon class="st1" points="618.83 224.47 629.24 224.47 629.24 185.89 644.2 185.89 644.2 178.26 664.35 210.04 656.74 224.47 667.55 224.47 691.82 178.24 691.82 185.89 706.77 185.89 706.77 224.47 717.18 224.47 717.18 185.89 732.13 185.89 732.13 177.41 692.25 177.41 691.82 177.41 681.51 177.41 669.3 200.88 654.67 177.41 644.2 177.41 643.66 177.41 603.88 177.41 603.88 185.89 618.83 185.89 618.83 224.47"/>
  <polygon class="st1" points="408.58 253.64 430.21 253.64 430.21 292.29 440.56 292.29 440.56 245.23 398.3 245.23 398.3 292.29 408.58 292.29 408.58 253.64"/>
  <polygon class="st1" points="526.2 224.47 536.61 224.47 536.61 185.89 551.56 185.89 551.56 177.41 511.25 177.41 511.25 185.89 526.2 185.89 526.2 224.47"/>
  <polygon class="st1" points="644.1 292.29 644.1 245.23 635.02 245.23 619.74 279.55 604.45 245.23 595.3 245.23 595.3 292.29 604.78 292.29 604.78 266.42 616.66 292.29 622.67 292.29 634.62 266.16 634.62 292.29 644.1 292.29"/>
  <rect class="st1" x="398.3" y="177.41" width="10.41" height="47.06"/>
  <path class="st1" d="M480.08,222.2c3.61,2,7.92,3.01,12.95,3.01,3.25,0,6.21-.47,8.88-1.4,2.67-.93,4.94-2.24,6.81-3.94l-3.27-8.21c-2.05,1.6-4.01,2.73-5.88,3.4-1.82.67-3.9,1-6.21,1-4.4,0-7.78-1.31-10.14-3.94-2.32-2.63-3.47-6.36-3.47-11.21s1.15-8.57,3.47-11.15c2.36-2.62,5.74-3.94,10.14-3.94,2.31,0,4.39.33,6.21,1,1.87.67,3.83,1.8,5.88,3.4l3.27-8.21c-1.87-1.74-4.14-3.05-6.81-3.94-2.67-.93-5.63-1.4-8.88-1.4-5.03,0-9.34,1-12.95,3.01-3.61,2-6.38,4.81-8.35,8.41-1.91,3.6-2.87,7.88-2.87,12.82s.96,9.23,2.87,12.88c1.96,3.61,4.74,6.41,8.35,8.41"/>
  <polygon class="st1" points="428.66 204.91 450.23 204.91 450.23 224.47 460.71 224.47 460.71 177.41 450.23 177.41 450.23 196.3 428.66 196.3 428.66 177.41 418.25 177.41 418.25 224.47 428.66 224.47 428.66 204.91"/>
  <polygon class="st1" points="886.87 253.64 908.5 253.64 908.5 292.29 918.85 292.29 918.85 245.23 876.59 245.23 876.59 292.29 886.87 292.29 886.87 253.64"/>
  <rect class="st1" x="942.55" y="231.35" width="8.81" height="8.81"/>
  <rect class="st1" x="1082.97" y="299.17" width="8.81" height="8.81"/>
  <rect class="st1" x="955.77" y="231.35" width="8.81" height="8.81"/>
  <path class="st1" d="M846.3,256.18h.26l7.72,17.89h-15.53l7.54-17.89ZM830.88,292.29l4.43-10.21h22.25l4.43,10.21h10.55l-21.9-47.06h-8.61l-21.63,47.06h10.48Z"/>
  <rect class="st1" x="948.36" y="245.23" width="10.41" height="47.06"/>
  <path class="st1" d="M796.33,253.31h10.21c2.49,0,4.34.56,5.54,1.67,1.25,1.07,1.87,2.6,1.87,4.61s-.62,3.56-1.87,4.67c-1.2,1.11-3.05,1.67-5.54,1.67h-10.21v-12.62ZM796.33,274h11.55c5.3,0,9.3-1.29,12.02-3.87,2.76-2.63,4.14-6.14,4.14-10.54s-1.38-7.94-4.14-10.48c-2.71-2.58-6.72-3.87-12.02-3.87h-21.96v47.06h10.41v-18.29Z"/>
  <polygon class="st1" points="725.33 292.29 725.33 253.71 740.29 253.71 740.29 245.23 699.96 245.23 699.96 253.71 714.92 253.71 714.92 292.29 725.33 292.29"/>
  <rect class="st1" x="1096.19" y="299.17" width="8.81" height="8.81"/>
  <polygon class="st1" points="710.18 360.12 710.18 313.06 699.7 313.06 699.7 331.95 678.14 331.95 678.14 313.06 667.73 313.06 667.73 360.12 678.14 360.12 678.14 340.56 699.7 340.56 699.7 360.12 710.18 360.12"/>
  <polygon class="st1" points="778.66 284.21 755.9 284.21 755.9 272.47 777.06 272.47 777.06 264.33 755.9 264.33 755.9 253.31 778.66 253.31 778.66 245.23 745.95 245.23 745.95 292.29 778.66 292.29 778.66 284.21"/>
  <polygon class="st1" points="660.48 321.13 660.48 313.06 627.77 313.06 627.77 360.12 660.48 360.12 660.48 352.04 637.71 352.04 637.71 340.29 658.87 340.29 658.87 332.15 637.71 332.15 637.71 321.13 660.48 321.13"/>
  <rect class="st1" x="928.42" y="245.23" width="10.41" height="47.06"/>
  <polygon class="st1" points="741.29 399.77 719.73 399.77 719.73 380.88 709.32 380.88 709.32 427.94 719.73 427.94 719.73 408.38 741.29 408.38 741.29 427.94 751.77 427.94 751.77 380.88 741.29 380.88 741.29 399.77"/>
  <polygon class="st1" points="621.82 313.06 588.91 313.06 588.91 360.12 599.26 360.12 599.26 321.47 621.82 321.47 621.82 313.06"/>
  <path class="st1" d="M964.32,350.91c-1.38.97-3.36,1.46-5.94,1.46h-11.21v-12.28h11.21c2.58,0,4.56.49,5.94,1.47,1.38.93,2.07,2.49,2.07,4.67s-.69,3.69-2.07,4.67M947.16,320.73h9.88c2.72,0,4.72.49,6.01,1.47s1.93,2.43,1.93,4.34-.64,3.43-1.93,4.4-3.29,1.47-6.01,1.47h-9.88v-11.68ZM967.69,335.76c1.97-.74,3.58-1.85,4.83-3.34,1.69-1.95,2.53-4.34,2.53-7.14,0-3.79-1.4-6.77-4.2-8.95-2.81-2.18-6.79-3.27-11.95-3.27h-21.7v47.06h22.43c5.21,0,9.28-1.16,12.22-3.47,2.98-2.36,4.47-5.63,4.47-9.81,0-3.16-.93-5.72-2.8-7.68-1.45-1.59-3.41-2.71-5.83-3.4"/>
  <polygon class="st1" points="668.21 411.45 668.21 380.88 658.6 380.88 658.6 427.94 666.21 427.94 690.11 397.37 690.11 427.94 699.79 427.94 699.79 380.88 692.04 380.88 668.21 411.45"/>
  <polygon class="st1" points="645.38 380.88 635.03 380.88 635.03 419.46 613.4 419.46 613.4 380.88 603.12 380.88 603.12 427.94 643.18 427.94 643.18 439.29 652.25 439.29 652.25 419.46 645.38 419.46 645.38 380.88"/>
  <polygon class="st1" points="719.75 360.12 752.46 360.12 752.46 352.04 729.69 352.04 729.69 340.29 750.85 340.29 750.85 332.15 729.69 332.15 729.69 321.14 752.46 321.14 752.46 313.06 719.75 313.06 719.75 360.12"/>
  <polygon class="st1" points="896.11 343.63 896.11 313.06 886.5 313.06 886.5 360.12 894.11 360.12 918.01 329.55 918.01 360.12 927.68 360.12 927.68 313.06 919.94 313.06 896.11 343.63"/>
  <polygon class="st1" points="840.51 321.54 855.46 321.54 855.46 360.12 865.88 360.12 865.88 321.54 880.83 321.54 880.83 313.06 840.51 313.06 840.51 321.54"/>
  <path class="st1" d="M770.12,321.13h10.21c2.49,0,4.34.56,5.54,1.67,1.25,1.07,1.87,2.6,1.87,4.61s-.62,3.56-1.87,4.67c-1.2,1.11-3.05,1.67-5.54,1.67h-10.21v-12.62ZM770.12,341.83h11.55c5.3,0,9.3-1.29,12.02-3.87,2.76-2.63,4.14-6.14,4.14-10.54s-1.38-7.94-4.14-10.48c-2.71-2.58-6.72-3.87-12.02-3.87h-21.96v47.06h10.41v-18.29Z"/>
  <path class="st1" d="M820.09,324h.26l7.72,17.89h-15.53l7.54-17.89ZM815.82,313.06l-21.63,47.06h10.48l4.43-10.22h22.25l4.43,10.22h10.55l-21.9-47.06h-8.61Z"/>
  <polygon class="st1" points="770.95 411.45 770.95 380.88 761.34 380.88 761.34 427.94 768.95 427.94 792.85 397.37 792.85 427.94 802.52 427.94 802.52 380.88 794.78 380.88 770.95 411.45"/>
  <polygon class="st1" points="562.02 411.45 562.02 380.88 552.41 380.88 552.41 427.94 560.02 427.94 583.92 397.37 583.92 427.94 593.6 427.94 593.6 380.88 585.85 380.88 562.02 411.45"/>
  <path class="st1" d="M1066.56,347.97c-2.1,2.71-5.14,4.07-9.15,4.07s-7.16-1.35-9.21-4.07c-2-2.76-3-6.56-3-11.42s1-8.68,3-11.35c2.05-2.71,5.12-4.07,9.21-4.07s7.1,1.36,9.15,4.07c2.09,2.67,3.14,6.45,3.14,11.35s-1.04,8.66-3.14,11.42M1069.76,315.33c-3.47-2-7.59-3.01-12.35-3.01s-8.88,1-12.35,3.01c-3.47,2-6.14,4.83-8.01,8.48-1.83,3.61-2.74,7.86-2.74,12.75s.93,9.1,2.8,12.75c1.87,3.65,4.52,6.5,7.94,8.54,3.47,2.01,7.59,3.01,12.35,3.01s8.88-1,12.35-3.01c3.47-2.05,6.14-4.87,8.01-8.47,1.91-3.65,2.87-7.94,2.87-12.88s-.96-9.08-2.87-12.69c-1.87-3.65-4.54-6.47-8.01-8.48"/>
  <polygon class="st1" points="456.84 427.94 489.55 427.94 489.55 419.86 466.79 419.86 466.79 408.12 487.95 408.12 487.95 399.98 466.79 399.98 466.79 388.96 489.55 388.96 489.55 380.88 456.84 380.88 456.84 427.94"/>
  <path class="st1" d="M457.14,259.72c0,3.96-.22,7.36-.67,10.21-.44,2.85-1.11,5.28-2,7.28-.89,2.01-2.05,3.72-3.47,5.14s-3.01,2.6-4.87,3.67l5.14,7.47c2.45-1.15,4.63-2.62,6.54-4.4,1.91-1.82,3.51-4,4.81-6.54,1.33-2.54,2.34-5.48,3-8.81.71-3.38,1.07-7.21,1.07-11.48v-8.61h15.48v38.65h10.35v-47.06h-35.38v14.48Z"/>
  <polygon class="st1" points="422.8 415.2 407.52 380.88 398.37 380.88 398.37 427.94 407.85 427.94 407.85 402.07 419.73 427.94 425.74 427.94 437.69 401.8 437.69 427.94 447.17 427.94 447.17 380.88 438.09 380.88 422.8 415.2"/>
  <polygon class="st1" points="409.19 360.12 419.6 360.12 419.6 321.54 434.55 321.54 434.55 313.06 394.23 313.06 394.23 321.54 409.19 321.54 409.19 360.12"/>
  <polygon class="st1" points="581.66 352.04 558.9 352.04 558.9 340.29 580.06 340.29 580.06 332.15 558.9 332.15 558.9 321.14 581.66 321.14 581.66 313.06 548.96 313.06 548.96 360.12 581.66 360.12 581.66 352.04"/>
  <path class="st1" d="M454.78,324.01h.26l7.72,17.89h-15.53l7.54-17.89ZM439.36,360.12l4.43-10.21h22.25l4.43,10.21h10.55l-21.9-47.06h-8.61l-21.63,47.06h10.48Z"/>
  <path class="st1" d="M522.44,256.18h.26l7.72,17.89h-15.53l7.54-17.89ZM518.17,245.23l-21.62,47.06h10.48l4.43-10.22h22.24l4.43,10.22h10.55l-21.9-47.06h-8.61Z"/>
  <polygon class="st1" points="1015.67 331.95 994.11 331.95 994.11 313.06 983.69 313.06 983.69 360.12 994.11 360.12 994.11 340.56 1015.67 340.56 1015.67 360.12 1026.15 360.12 1026.15 313.06 1015.67 313.06 1015.67 331.95"/>
  <g>
    <path class="st1" d="M528.91,419.93h-20.89c1.82-2.72,3.18-6.17,4.07-10.35s1.33-9.28,1.33-15.29v-5.47h15.49v31.11ZM539.26,380.88h-35.31v12.41c0,6.37-.51,11.77-1.54,16.22-1.02,4.4-2.58,7.88-4.67,10.41h-4.94v19.36h9.08v-11.35h35.24v11.35h9.01v-19.36h-6.87v-39.05Z"/>
    <path class="st1" d="M514.32,321.13h10.21c2.49,0,4.34.56,5.54,1.67,1.25,1.07,1.87,2.6,1.87,4.61s-.62,3.56-1.87,4.67c-1.2,1.11-3.05,1.67-5.54,1.67h-10.21v-12.62ZM514.32,341.83h11.55c5.3,0,9.3-1.29,12.02-3.87,2.76-2.63,4.14-6.14,4.14-10.54s-1.38-7.94-4.14-10.48c-2.72-2.58-6.72-3.87-12.02-3.87h-21.96v47.06h10.41v-18.29Z"/>
  </g>
</svg>