<?xml version="1.0" encoding="UTF-8"?>
<svg id="Layer_1" xmlns="http://www.w3.org/2000/svg" version="1.1" viewBox="0 0 500 500">
  <!-- Generator: Adobe Illustrator 29.5.1, SVG Export Plug-In . SVG Version: 2.1.0 Build 141)  -->
  <defs>
    <style>
      .st0 {
        fill: #fcaf1a;
      }

      .st1 {
        fill: #7055a4;
      }
    </style>
  </defs>
  <path class="st1" d="M230.48,41.75c6.28,0,11.36,5.14,11.36,11.41s-5.08,11.36-11.36,11.36-11.36-5.08-11.36-11.36,5.08-11.41,11.36-11.41"/>
  <path class="st1" d="M233.64,67.08c7.03,0,12.74,5.71,12.74,12.75s-5.71,12.76-12.74,12.76-12.75-5.71-12.75-12.76,5.71-12.75,12.75-12.75"/>
  <path class="st1" d="M246.94,92.95c8.43,0,15.29,6.86,15.29,15.29s-6.86,15.35-15.29,15.35-15.29-6.85-15.29-15.35,6.86-15.29,15.29-15.29"/>
  <path class="st1" d="M270.68,118.82c9.39,0,17.07,7.67,17.07,17.07s-7.67,17.06-17.07,17.06-17.07-7.61-17.07-17.06,7.61-17.07,17.07-17.07"/>
  <path class="st1" d="M302.83,143.55c10.71,0,19.41,8.69,19.41,19.41s-8.69,19.41-19.41,19.41-19.41-8.69-19.41-19.41,8.69-19.41,19.41-19.41"/>
  <path class="st1" d="M344.82,277.49c-3.24,5.33-1.58,12.36,3.8,15.6,5.39,3.3,12.36,1.58,15.61-3.8,3.29-5.33,1.58-12.36-3.74-15.6-5.39-3.29-12.36-1.58-15.67,3.8"/>
  <path class="st1" d="M348.83,248.32c-3.68,6.03-1.78,13.83,4.25,17.5,6.04,3.68,13.89,1.78,17.5-4.25,3.68-6.04,1.78-13.83-4.25-17.5-6.03-3.68-13.82-1.78-17.5,4.26h0Z"/>
  <path class="st1" d="M341.64,214.86c-4.38,7.23-2.09,16.61,5.08,21,7.24,4.44,16.61,2.15,21.06-5.08,4.38-7.24,2.1-16.61-5.13-21.06-7.24-4.38-16.61-2.1-21,5.14h-.01Z"/>
  <path class="st1" d="M319.28,184.07c-4.88,8.05-2.36,18.52,5.71,23.4,7.99,4.88,18.52,2.36,23.4-5.71,4.88-7.99,2.36-18.52-5.71-23.4-7.99-4.88-18.52-2.36-23.4,5.71"/>
  <path class="st0" d="M111.29,204.97c6.28,0,11.36,5.08,11.36,11.36s-5.08,11.35-11.36,11.35-11.41-5.08-11.41-11.35,5.13-11.36,11.41-11.36"/>
  <path class="st0" d="M114.41,230.17c7.03,0,12.75,5.71,12.75,12.74s-5.71,12.75-12.75,12.75-12.75-5.71-12.75-12.75,5.71-12.74,12.75-12.74"/>
  <path class="st0" d="M127.73,256.08c8.43,0,15.29,6.86,15.29,15.35s-6.86,15.29-15.29,15.29-15.29-6.85-15.29-15.29,6.86-15.35,15.29-15.35"/>
  <path class="st0" d="M151.44,281.94c9.45,0,17.07,7.67,17.07,17.07s-7.62,17.06-17.07,17.06-17.07-7.61-17.07-17.06,7.67-17.07,17.07-17.07"/>
  <path class="st0" d="M183.59,306.68c10.71,0,19.41,8.69,19.41,19.41s-8.69,19.41-19.41,19.41-19.41-8.69-19.41-19.41,8.69-19.41,19.41-19.41"/>
  <path class="st0" d="M225.64,440.62c-3.3,5.33-1.58,12.36,3.74,15.6,5.39,3.29,12.36,1.58,15.66-3.8,3.24-5.33,1.6-12.36-3.8-15.61-5.39-3.29-12.38-1.57-15.6,3.82"/>
  <path class="st0" d="M229.63,411.44c-3.68,6.03-1.78,13.83,4.26,17.5,5.96,3.68,13.83,1.78,17.5-4.26,3.62-6.03,1.72-13.83-4.25-17.5-6.03-3.68-13.89-1.78-17.5,4.25h-.01Z"/>
  <path class="st0" d="M222.43,377.96c-4.37,7.24-2.09,16.61,5.14,21,7.24,4.44,16.61,2.15,21-5.08,4.38-7.24,2.1-16.61-5.08-21-7.23-4.44-16.61-2.15-21.06,5.08"/>
  <path class="st0" d="M200.03,347.21c-4.88,8.05-2.36,18.52,5.71,23.4,8.05,4.95,18.52,2.36,23.47-5.72,4.88-7.99,2.36-18.52-5.71-23.4-8.05-4.88-18.52-2.34-23.47,5.71h0Z"/>
  <path class="st1" d="M249.94,165.43c2.72-2.02,6.59-1.46,8.63,1.26s1.46,6.59-1.26,8.63l-94.12,69.51c-2.74,2.02-6.59,1.46-8.63-1.26-2.02-2.8-1.46-6.66,1.26-8.69l94.12-69.45h0Z"/>
  <path class="st1" d="M271.93,177.56c2.79-2.04,6.66-1.4,8.61,1.34,2.04,2.79,1.4,6.66-1.33,8.69l-108.71,78.9c-2.74,1.95-6.59,1.4-8.63-1.4-1.98-2.79-1.4-6.66,1.4-8.63l108.65-78.9h.01-.01Z"/>
  <path class="st0" d="M295.5,186.55c2.74-2.04,6.59-1.4,8.63,1.34,2.02,2.79,1.4,6.66-1.34,8.63l-122.4,89.93c-2.74,1.98-6.59,1.4-8.63-1.34-2.02-2.79-1.4-6.66,1.34-8.68l122.4-89.87h0Z"/>
  <path class="st1" d="M293.06,216.36c2.74-2.02,6.59-1.46,8.61,1.34,2.04,2.72,1.46,6.59-1.26,8.63l-94.12,69.51c-2.72,2.02-6.59,1.46-8.63-1.33-2.04-2.74-1.46-6.6,1.26-8.63l94.12-69.51h.01Z"/>
  <path class="st1" d="M315.08,228.49c2.79-1.98,6.66-1.4,8.63,1.4,2.02,2.79,1.4,6.66-1.34,8.63l-108.65,78.9c-2.79,2.04-6.66,1.4-8.69-1.34-1.98-2.79-1.4-6.66,1.4-8.69l108.65-78.9h0Z"/>
</svg>